<mxfile host="app.diagrams.net" modified="2024-06-12T15:32:28.137Z" agent="Mozilla/5.0 (Windows NT 10.0; Win64; x64) AppleWebKit/537.36 (KHTML, like Gecko) Chrome/124.0.0.0 Safari/537.36" etag="tdPPlHcu3497X1EtiETF" version="24.5.3" type="device">
  <diagram name="第 1 页" id="qFABi5C-MwG_BKsdDP-M">
    <mxGraphModel dx="2097" dy="686" grid="1" gridSize="10" guides="1" tooltips="1" connect="1" arrows="1" fold="1" page="1" pageScale="1" pageWidth="827" pageHeight="1169" math="0" shadow="0">
      <root>
        <mxCell id="0" />
        <mxCell id="1" parent="0" />
        <mxCell id="k8-7pITEL2FwJoCDK9g3-15" value="" style="edgeStyle=orthogonalEdgeStyle;rounded=0;orthogonalLoop=1;jettySize=auto;html=1;shadow=1;" parent="1" source="k8-7pITEL2FwJoCDK9g3-2" target="k8-7pITEL2FwJoCDK9g3-3" edge="1">
          <mxGeometry relative="1" as="geometry" />
        </mxCell>
        <mxCell id="k8-7pITEL2FwJoCDK9g3-2" value="&lt;font style=&quot;font-size: 18px;&quot; face=&quot;Times New Roman&quot;&gt;卷积层&lt;/font&gt;" style="rounded=1;whiteSpace=wrap;html=1;fillColor=#f5f5f5;fontColor=#333333;strokeColor=#666666;shadow=1;" parent="1" vertex="1">
          <mxGeometry x="-50" y="155" width="120" height="50" as="geometry" />
        </mxCell>
        <mxCell id="k8-7pITEL2FwJoCDK9g3-16" value="" style="edgeStyle=orthogonalEdgeStyle;rounded=0;orthogonalLoop=1;jettySize=auto;html=1;shadow=1;" parent="1" source="k8-7pITEL2FwJoCDK9g3-3" target="k8-7pITEL2FwJoCDK9g3-4" edge="1">
          <mxGeometry relative="1" as="geometry" />
        </mxCell>
        <mxCell id="k8-7pITEL2FwJoCDK9g3-3" value="&lt;font face=&quot;Times New Roman&quot;&gt;&lt;span style=&quot;font-size: 18px;&quot;&gt;ReLU&lt;/span&gt;&lt;/font&gt;" style="rounded=1;whiteSpace=wrap;html=1;fillColor=#dae8fc;strokeColor=#6c8ebf;align=center;verticalAlign=middle;fontFamily=Helvetica;fontSize=12;shadow=1;" parent="1" vertex="1">
          <mxGeometry x="105" y="155" width="120" height="50" as="geometry" />
        </mxCell>
        <mxCell id="k8-7pITEL2FwJoCDK9g3-17" value="" style="edgeStyle=orthogonalEdgeStyle;rounded=0;orthogonalLoop=1;jettySize=auto;html=1;shadow=1;" parent="1" source="k8-7pITEL2FwJoCDK9g3-4" target="k8-7pITEL2FwJoCDK9g3-5" edge="1">
          <mxGeometry relative="1" as="geometry" />
        </mxCell>
        <mxCell id="k8-7pITEL2FwJoCDK9g3-4" value="&lt;font face=&quot;Times New Roman&quot;&gt;&lt;span style=&quot;font-size: 18px;&quot;&gt;最大池化层&lt;/span&gt;&lt;/font&gt;" style="rounded=1;whiteSpace=wrap;html=1;fillColor=#ffe6cc;strokeColor=#d79b00;align=center;verticalAlign=middle;fontFamily=Helvetica;fontSize=12;shadow=1;" parent="1" vertex="1">
          <mxGeometry x="250" y="155" width="120" height="50" as="geometry" />
        </mxCell>
        <mxCell id="k8-7pITEL2FwJoCDK9g3-18" style="edgeStyle=orthogonalEdgeStyle;rounded=0;orthogonalLoop=1;jettySize=auto;html=1;shadow=1;" parent="1" source="k8-7pITEL2FwJoCDK9g3-5" target="k8-7pITEL2FwJoCDK9g3-6" edge="1">
          <mxGeometry relative="1" as="geometry" />
        </mxCell>
        <mxCell id="k8-7pITEL2FwJoCDK9g3-5" value="&lt;font style=&quot;font-size: 18px;&quot; face=&quot;Times New Roman&quot;&gt;卷积层&lt;/font&gt;" style="rounded=1;whiteSpace=wrap;html=1;fillColor=#f5f5f5;strokeColor=#666666;align=center;verticalAlign=middle;fontFamily=Helvetica;fontSize=12;fontColor=#333333;shadow=1;" parent="1" vertex="1">
          <mxGeometry x="400" y="155" width="120" height="50" as="geometry" />
        </mxCell>
        <mxCell id="k8-7pITEL2FwJoCDK9g3-26" value="" style="edgeStyle=orthogonalEdgeStyle;rounded=0;orthogonalLoop=1;jettySize=auto;html=1;shadow=1;" parent="1" source="k8-7pITEL2FwJoCDK9g3-6" target="k8-7pITEL2FwJoCDK9g3-7" edge="1">
          <mxGeometry relative="1" as="geometry" />
        </mxCell>
        <mxCell id="k8-7pITEL2FwJoCDK9g3-6" value="&lt;font face=&quot;Times New Roman&quot;&gt;&lt;span style=&quot;font-size: 18px;&quot;&gt;ReLU&lt;/span&gt;&lt;/font&gt;" style="rounded=1;whiteSpace=wrap;html=1;fillColor=#e5f0ff;strokeColor=#6c8ebf;align=center;verticalAlign=middle;fontFamily=Helvetica;fontSize=12;fontColor=default;shadow=1;" parent="1" vertex="1">
          <mxGeometry x="540" y="155" width="120" height="50" as="geometry" />
        </mxCell>
        <mxCell id="k8-7pITEL2FwJoCDK9g3-21" value="" style="edgeStyle=orthogonalEdgeStyle;rounded=0;orthogonalLoop=1;jettySize=auto;html=1;shadow=1;" parent="1" source="k8-7pITEL2FwJoCDK9g3-7" target="k8-7pITEL2FwJoCDK9g3-8" edge="1">
          <mxGeometry relative="1" as="geometry" />
        </mxCell>
        <mxCell id="k8-7pITEL2FwJoCDK9g3-7" value="&lt;font face=&quot;Times New Roman&quot;&gt;&lt;span style=&quot;font-size: 18px;&quot;&gt;最大池化层&lt;/span&gt;&lt;/font&gt;" style="rounded=1;whiteSpace=wrap;html=1;fillColor=#ffe6cc;strokeColor=#d79b00;align=center;verticalAlign=middle;fontFamily=Helvetica;fontSize=12;shadow=1;" parent="1" vertex="1">
          <mxGeometry x="540" y="300" width="120" height="50" as="geometry" />
        </mxCell>
        <mxCell id="k8-7pITEL2FwJoCDK9g3-22" value="" style="edgeStyle=orthogonalEdgeStyle;rounded=0;orthogonalLoop=1;jettySize=auto;html=1;shadow=1;" parent="1" source="k8-7pITEL2FwJoCDK9g3-8" target="k8-7pITEL2FwJoCDK9g3-9" edge="1">
          <mxGeometry relative="1" as="geometry" />
        </mxCell>
        <mxCell id="k8-7pITEL2FwJoCDK9g3-8" value="&lt;font face=&quot;Times New Roman&quot;&gt;&lt;span style=&quot;font-size: 18px;&quot;&gt;全连接层&lt;/span&gt;&lt;/font&gt;" style="rounded=1;whiteSpace=wrap;html=1;fillColor=#f8cecc;strokeColor=#b85450;align=center;verticalAlign=middle;fontFamily=Helvetica;fontSize=12;shadow=1;" parent="1" vertex="1">
          <mxGeometry x="400" y="300" width="120" height="50" as="geometry" />
        </mxCell>
        <mxCell id="k8-7pITEL2FwJoCDK9g3-28" value="" style="edgeStyle=orthogonalEdgeStyle;rounded=0;orthogonalLoop=1;jettySize=auto;html=1;shadow=1;" parent="1" source="k8-7pITEL2FwJoCDK9g3-9" target="k8-7pITEL2FwJoCDK9g3-27" edge="1">
          <mxGeometry relative="1" as="geometry" />
        </mxCell>
        <mxCell id="k8-7pITEL2FwJoCDK9g3-9" value="&lt;font face=&quot;Times New Roman&quot;&gt;&lt;span style=&quot;font-size: 18px;&quot;&gt;ReLU&lt;/span&gt;&lt;/font&gt;" style="rounded=1;whiteSpace=wrap;html=1;fillColor=#e5f0ff;strokeColor=#6c8ebf;align=center;verticalAlign=middle;fontFamily=Helvetica;fontSize=12;fontColor=default;shadow=1;" parent="1" vertex="1">
          <mxGeometry x="260" y="300" width="120" height="50" as="geometry" />
        </mxCell>
        <mxCell id="k8-7pITEL2FwJoCDK9g3-24" value="" style="edgeStyle=orthogonalEdgeStyle;rounded=0;orthogonalLoop=1;jettySize=auto;html=1;shadow=1;" parent="1" source="k8-7pITEL2FwJoCDK9g3-10" target="k8-7pITEL2FwJoCDK9g3-13" edge="1">
          <mxGeometry relative="1" as="geometry" />
        </mxCell>
        <mxCell id="k8-7pITEL2FwJoCDK9g3-10" value="&lt;font style=&quot;font-size: 18px;&quot; face=&quot;Times New Roman&quot;&gt;LogSoftmax&lt;/font&gt;" style="rounded=1;whiteSpace=wrap;html=1;fillColor=#e5f0ff;strokeColor=#6c8ebf;align=center;verticalAlign=middle;fontFamily=Helvetica;fontSize=12;fontColor=default;shadow=1;" parent="1" vertex="1">
          <mxGeometry x="-50" y="300" width="120" height="50" as="geometry" />
        </mxCell>
        <mxCell id="k8-7pITEL2FwJoCDK9g3-13" value="&lt;font style=&quot;font-size: 18px;&quot;&gt;预测输出&lt;/font&gt;&lt;div&gt;&lt;font style=&quot;font-size: 18px;&quot;&gt;（0-10)&lt;/font&gt;&lt;/div&gt;" style="text;html=1;align=center;verticalAlign=middle;whiteSpace=wrap;rounded=0;shadow=1;" parent="1" vertex="1">
          <mxGeometry x="-210" y="300" width="120" height="50" as="geometry" />
        </mxCell>
        <mxCell id="k8-7pITEL2FwJoCDK9g3-25" value="" style="edgeStyle=orthogonalEdgeStyle;rounded=0;orthogonalLoop=1;jettySize=auto;html=1;shadow=1;" parent="1" source="k8-7pITEL2FwJoCDK9g3-14" target="k8-7pITEL2FwJoCDK9g3-2" edge="1">
          <mxGeometry relative="1" as="geometry" />
        </mxCell>
        <mxCell id="k8-7pITEL2FwJoCDK9g3-14" value="&lt;span style=&quot;font-size: 18px;&quot;&gt;输入&lt;/span&gt;&lt;div&gt;&lt;span style=&quot;font-size: 18px;&quot;&gt;（28 * 28）&lt;/span&gt;&lt;/div&gt;" style="text;html=1;align=center;verticalAlign=middle;whiteSpace=wrap;rounded=0;shadow=1;" parent="1" vertex="1">
          <mxGeometry x="-210" y="155" width="120" height="50" as="geometry" />
        </mxCell>
        <mxCell id="k8-7pITEL2FwJoCDK9g3-29" value="" style="edgeStyle=orthogonalEdgeStyle;rounded=0;orthogonalLoop=1;jettySize=auto;html=1;shadow=1;" parent="1" source="k8-7pITEL2FwJoCDK9g3-27" target="k8-7pITEL2FwJoCDK9g3-10" edge="1">
          <mxGeometry relative="1" as="geometry" />
        </mxCell>
        <mxCell id="k8-7pITEL2FwJoCDK9g3-27" value="&lt;font face=&quot;Times New Roman&quot;&gt;&lt;span style=&quot;font-size: 18px;&quot;&gt;全连接层&lt;/span&gt;&lt;/font&gt;" style="rounded=1;whiteSpace=wrap;html=1;fillColor=#f8cecc;strokeColor=#b85450;align=center;verticalAlign=middle;fontFamily=Helvetica;fontSize=12;shadow=1;" parent="1" vertex="1">
          <mxGeometry x="105" y="300" width="120" height="50" as="geometry" />
        </mxCell>
        <mxCell id="k8-7pITEL2FwJoCDK9g3-32" value="" style="edgeStyle=orthogonalEdgeStyle;rounded=0;orthogonalLoop=1;jettySize=auto;html=1;" parent="1" source="k8-7pITEL2FwJoCDK9g3-30" target="k8-7pITEL2FwJoCDK9g3-31" edge="1">
          <mxGeometry relative="1" as="geometry" />
        </mxCell>
        <mxCell id="k8-7pITEL2FwJoCDK9g3-30" value="训练模块" style="rounded=1;whiteSpace=wrap;html=1;" parent="1" vertex="1">
          <mxGeometry x="-330" y="510" width="120" height="60" as="geometry" />
        </mxCell>
        <mxCell id="k8-7pITEL2FwJoCDK9g3-31" value="读取数据集" style="rounded=1;whiteSpace=wrap;html=1;" parent="1" vertex="1">
          <mxGeometry x="-330" y="600" width="120" height="60" as="geometry" />
        </mxCell>
        <mxCell id="k8-7pITEL2FwJoCDK9g3-33" value="训练模型" style="rounded=1;whiteSpace=wrap;html=1;" parent="1" vertex="1">
          <mxGeometry x="-330" y="690" width="120" height="60" as="geometry" />
        </mxCell>
        <mxCell id="k8-7pITEL2FwJoCDK9g3-37" value="" style="edgeStyle=orthogonalEdgeStyle;rounded=0;orthogonalLoop=1;jettySize=auto;html=1;" parent="1" source="k8-7pITEL2FwJoCDK9g3-34" target="k8-7pITEL2FwJoCDK9g3-36" edge="1">
          <mxGeometry relative="1" as="geometry" />
        </mxCell>
        <mxCell id="k8-7pITEL2FwJoCDK9g3-38" value="" style="edgeStyle=orthogonalEdgeStyle;rounded=0;orthogonalLoop=1;jettySize=auto;html=1;" parent="1" source="k8-7pITEL2FwJoCDK9g3-34" target="k8-7pITEL2FwJoCDK9g3-35" edge="1">
          <mxGeometry relative="1" as="geometry" />
        </mxCell>
        <mxCell id="k8-7pITEL2FwJoCDK9g3-34" value="输出评估曲线" style="rounded=1;whiteSpace=wrap;html=1;" parent="1" vertex="1">
          <mxGeometry x="-330" y="780" width="120" height="60" as="geometry" />
        </mxCell>
        <mxCell id="k8-7pITEL2FwJoCDK9g3-35" value="训练模块结束" style="rounded=1;whiteSpace=wrap;html=1;" parent="1" vertex="1">
          <mxGeometry x="-330" y="870" width="120" height="60" as="geometry" />
        </mxCell>
        <mxCell id="k8-7pITEL2FwJoCDK9g3-49" value="" style="edgeStyle=orthogonalEdgeStyle;rounded=0;orthogonalLoop=1;jettySize=auto;html=1;" parent="1" source="k8-7pITEL2FwJoCDK9g3-36" target="k8-7pITEL2FwJoCDK9g3-48" edge="1">
          <mxGeometry relative="1" as="geometry" />
        </mxCell>
        <mxCell id="k8-7pITEL2FwJoCDK9g3-36" value="保存模型" style="rounded=1;whiteSpace=wrap;html=1;" parent="1" vertex="1">
          <mxGeometry x="-130" y="780" width="120" height="60" as="geometry" />
        </mxCell>
        <mxCell id="k8-7pITEL2FwJoCDK9g3-46" style="edgeStyle=orthogonalEdgeStyle;rounded=0;orthogonalLoop=1;jettySize=auto;html=1;entryX=0.5;entryY=0;entryDx=0;entryDy=0;" parent="1" source="k8-7pITEL2FwJoCDK9g3-39" target="k8-7pITEL2FwJoCDK9g3-40" edge="1">
          <mxGeometry relative="1" as="geometry" />
        </mxCell>
        <mxCell id="k8-7pITEL2FwJoCDK9g3-39" value="用户界面模块" style="rounded=1;whiteSpace=wrap;html=1;" parent="1" vertex="1">
          <mxGeometry x="60" y="510" width="120" height="60" as="geometry" />
        </mxCell>
        <mxCell id="k8-7pITEL2FwJoCDK9g3-47" style="edgeStyle=orthogonalEdgeStyle;rounded=0;orthogonalLoop=1;jettySize=auto;html=1;entryX=0.5;entryY=0;entryDx=0;entryDy=0;" parent="1" source="k8-7pITEL2FwJoCDK9g3-40" target="k8-7pITEL2FwJoCDK9g3-41" edge="1">
          <mxGeometry relative="1" as="geometry" />
        </mxCell>
        <mxCell id="k8-7pITEL2FwJoCDK9g3-40" value="初始化界面" style="rounded=1;whiteSpace=wrap;html=1;" parent="1" vertex="1">
          <mxGeometry x="60" y="600" width="120" height="60" as="geometry" />
        </mxCell>
        <mxCell id="k8-7pITEL2FwJoCDK9g3-42" style="edgeStyle=orthogonalEdgeStyle;rounded=0;orthogonalLoop=1;jettySize=auto;html=1;" parent="1" source="k8-7pITEL2FwJoCDK9g3-41" target="k8-7pITEL2FwJoCDK9g3-36" edge="1">
          <mxGeometry relative="1" as="geometry" />
        </mxCell>
        <mxCell id="k8-7pITEL2FwJoCDK9g3-51" style="edgeStyle=orthogonalEdgeStyle;rounded=0;orthogonalLoop=1;jettySize=auto;html=1;entryX=0.5;entryY=0;entryDx=0;entryDy=0;" parent="1" source="k8-7pITEL2FwJoCDK9g3-41" target="k8-7pITEL2FwJoCDK9g3-48" edge="1">
          <mxGeometry relative="1" as="geometry" />
        </mxCell>
        <mxCell id="k8-7pITEL2FwJoCDK9g3-41" value="用户选择图片" style="rounded=1;whiteSpace=wrap;html=1;" parent="1" vertex="1">
          <mxGeometry x="60" y="690" width="120" height="60" as="geometry" />
        </mxCell>
        <mxCell id="k8-7pITEL2FwJoCDK9g3-43" value="调用模型" style="text;html=1;align=center;verticalAlign=middle;whiteSpace=wrap;rounded=0;" parent="1" vertex="1">
          <mxGeometry x="-40" y="690" width="60" height="30" as="geometry" />
        </mxCell>
        <mxCell id="k8-7pITEL2FwJoCDK9g3-54" value="" style="edgeStyle=orthogonalEdgeStyle;rounded=0;orthogonalLoop=1;jettySize=auto;html=1;" parent="1" source="k8-7pITEL2FwJoCDK9g3-48" target="k8-7pITEL2FwJoCDK9g3-53" edge="1">
          <mxGeometry relative="1" as="geometry" />
        </mxCell>
        <mxCell id="k8-7pITEL2FwJoCDK9g3-48" value="输出预测结果" style="rounded=1;whiteSpace=wrap;html=1;" parent="1" vertex="1">
          <mxGeometry x="60" y="780" width="120" height="60" as="geometry" />
        </mxCell>
        <mxCell id="k8-7pITEL2FwJoCDK9g3-50" value="预测" style="text;html=1;align=center;verticalAlign=middle;whiteSpace=wrap;rounded=0;" parent="1" vertex="1">
          <mxGeometry x="-10" y="780" width="60" height="30" as="geometry" />
        </mxCell>
        <mxCell id="k8-7pITEL2FwJoCDK9g3-52" style="edgeStyle=orthogonalEdgeStyle;rounded=0;orthogonalLoop=1;jettySize=auto;html=1;entryX=0.998;entryY=0.438;entryDx=0;entryDy=0;entryPerimeter=0;" parent="1" source="k8-7pITEL2FwJoCDK9g3-48" target="k8-7pITEL2FwJoCDK9g3-41" edge="1">
          <mxGeometry relative="1" as="geometry">
            <Array as="points">
              <mxPoint x="200" y="810" />
              <mxPoint x="200" y="716" />
            </Array>
          </mxGeometry>
        </mxCell>
        <mxCell id="k8-7pITEL2FwJoCDK9g3-53" value="用户界面结束" style="rounded=1;whiteSpace=wrap;html=1;" parent="1" vertex="1">
          <mxGeometry x="60" y="870" width="120" height="60" as="geometry" />
        </mxCell>
      </root>
    </mxGraphModel>
  </diagram>
</mxfile>
